<?xml version="1.0" encoding="utf-8"?>
<!-- Generator: Adobe Illustrator 25.4.0, SVG Export Plug-In . SVG Version: 6.00 Build 0)  -->
<svg version="1.1" id="Capa_1" xmlns="http://www.w3.org/2000/svg" xmlns:xlink="http://www.w3.org/1999/xlink" x="0px" y="0px"
	 viewBox="0 0 20 20" style="enable-background:new 0 0 20 20;" xml:space="preserve">
<style type="text/css">
	.st0{fill:#1D1D1B;}
</style>
<g>
	<path class="st0" d="M18.7-0.1c-1.6,0-2.7,0.2-3.5,0.8c-0.8,0.5-1.2,1.4-1.4,2.6c0,0,0,0,0,0c-0.2,1.4-0.4,2.9-0.5,4.5h-3
		c-0.7,0-1.3,0.4-1.6,1L8.2,9.8C7.4,9.7,6.6,9.7,5.7,9.7c-0.4,0-0.8,0.1-1.2,0.5c-0.4,0.4-0.7,0.9-0.7,1.7c0,0.8,0.3,1.4,0.7,1.7
		c0.4,0.3,0.7,0.5,0.8,0.5c0,0,0,0,0.1,0H6l-1.4,2.7c-0.3,0.5-0.8,0.8-1.4,0.8H0.7c-0.1,0-0.2,0.1-0.2,0.2c0,0.1,0.1,0.2,0.2,0.2
		c0,0,0,0,0,0h2.5C4,18.1,4.6,17.7,5,17l1.5-2.9h4v3.6h-2c-1.1,0-2,0.9-2.1,2c0,0.1,0.1,0.2,0.2,0.2c0,0,0,0,0,0h10.1
		c0.1,0,0.2-0.1,0.2-0.2c0,0,0,0,0,0c-0.1-1.1-1.1-2-2.2-2h-2.2v-3.6h3.8c0.1,0,0.2-0.1,0.2-0.2v-2.5L19,0.2
		C19,0.1,18.9-0.1,18.7-0.1C18.8-0.1,18.7-0.1,18.7-0.1 M18.5,0.4l-2.4,10.9c0,0,0,0,0,0v2.3h-3.6h-0.2h-1.6H6.4c0,0,0,0,0,0
		c0,0,0,0,0,0H5.4c-0.1,0-0.4-0.1-0.6-0.4c-0.3-0.3-0.5-0.7-0.5-1.4c0-0.7,0.2-1.1,0.5-1.4c0.3-0.3,0.7-0.4,0.9-0.4
		c0.8,0,1.5,0,2.2,0.1l-0.8,1.6c-0.1,0.1,0,0.2,0.1,0.3c0.1,0.1,0.2,0,0.3-0.1c0,0,0,0,0,0l0.9-1.8c1.7,0.1,3.3,0.3,4.8,0.6l0.2,0.1
		c0.1,0,0.2,0,0.3-0.1c0,0,0-0.1,0-0.1l-0.1-0.2c0-0.3,0-0.5,0-0.7c0-0.2,0-0.3,0-0.5h0.7c0.4,0,0.8-0.4,0.8-0.8
		c0-0.4-0.4-0.8-0.8-0.8h-0.1h-0.5c0.1-1.6,0.3-3,0.5-4.4l0,0v0c0.2-1.1,0.6-1.8,1.2-2.3C16.1,0.6,17.1,0.4,18.5,0.4 M17.4,1.1
		c-0.1,0-0.1,0-0.1,0.1l-0.1,0.2c0,0.1,0,0.1,0.1,0.1c0.1,0,0.1,0,0.1-0.1c0,0,0,0,0,0l0.1-0.2C17.6,1.2,17.5,1.1,17.4,1.1
		C17.5,1.1,17.5,1.1,17.4,1.1 M17.2,2c-0.1,0-0.1,0-0.1,0.1L17,2.5c0,0.1,0,0.1,0.1,0.1c0.1,0,0.1,0,0.1-0.1c0,0,0,0,0,0l0.1-0.4
		C17.4,2.1,17.3,2,17.2,2C17.3,2,17.3,2,17.2,2 M17,3.1c-0.1,0-0.1,0-0.1,0.1l-0.6,2.9c0,0.1,0,0.1,0.1,0.1c0.1,0,0.1,0,0.1-0.1
		c0,0,0,0,0,0l0.6-2.9C17.1,3.2,17.1,3.1,17,3.1C17,3.1,17,3.1,17,3.1 M10.4,8.1h3.9h0.1c0.2,0,0.3,0.1,0.3,0.3
		c0,0.2-0.1,0.3-0.3,0.3H9.2C9.4,8.4,9.9,8.1,10.4,8.1 M9,9.2h4.2c0,0.1,0,0.3,0,0.4c0,0,0,0,0,0c0,0.2,0,0.4,0,0.7
		c-1.4-0.2-2.9-0.4-4.5-0.6L9,9.2z M11,13.9h1.1v4c0,0.1,0.1,0.2,0.2,0.2h2.4c0.8,0,1.5,0.6,1.7,1.3H6.9c0.2-0.8,0.8-1.3,1.6-1.3
		h2.2c0.1,0,0.2-0.1,0.2-0.2V13.9z"/>
</g>
</svg>
