<svg xmlns="http://www.w3.org/2000/svg" viewBox="0 0 280.8 47.62"><defs><style>.cls-1{fill:#b71622;}.cls-2{fill:#fff;}</style></defs><g id="Capa_2" data-name="Capa 2"><g id="Capa_1-2" data-name="Capa 1"><path class="cls-1" d="M270.29,38.71l-.07-.12c-3.82-5.67-8.81-6.29-11.57-5.74a8.36,8.36,0,0,0-5.43-2.07,8.45,8.45,0,0,0-7.86,5.13,12.89,12.89,0,0,0-5.82,3.46l-10.38-5.66.37-.39a1.41,1.41,0,0,0,0-1.94l-.63-.69,10.64-9.43a8.39,8.39,0,1,0-2-5.47,9.35,9.35,0,0,0,.21,1.93L226.88,28.48l-.53-.58a1.42,1.42,0,0,0-1.13-.45l-2.91.32-5.24.34-33.32,2.3a1.42,1.42,0,0,0,0,2.83L218.4,36.5l5.86.54.85.12a1.44,1.44,0,0,0,1.13-.43l.88-.91,12,6.58A1.41,1.41,0,0,0,241,42a11,11,0,0,1,3.7-2.84,8.44,8.44,0,1,0,16-3.61c1.83.08,4.62.9,7.11,4.57.25.47.22.72.19.76a1.4,1.4,0,1,0-1,2.62,2.83,2.83,0,0,0,3.14-.75A3.43,3.43,0,0,0,270.29,38.71ZM240.78,16.09a3.1,3.1,0,0,0,4.36-2.81,3.06,3.06,0,0,0-1-2.31,5.36,5.36,0,0,1,2-.38,5.3,5.3,0,1,1-5.35,5.5ZM226.73,32.2A2.17,2.17,0,1,1,224.59,30,2.16,2.16,0,0,1,226.73,32.2Zm31.85,7.06a5.52,5.52,0,0,1-11,.57,3.18,3.18,0,0,0,1.69.52,3.21,3.21,0,0,0,1.41-6.12,5.47,5.47,0,0,1,7.88,4.82h0C258.56,39.12,258.58,39.19,258.58,39.26Z"/><path class="cls-1" d="M.67,16.24h2l2-11.56h-2L3.36.91h7.69l2.23,12.4L20,.91h8.18l-.65,3.77h-2L23.74,15.11c-.13.76.17,1.13,1,1.13h.81L24.85,20H23.37c-3,0-4.52-1.8-4-4.74l1.45-8.14L13.85,20H10.57L8.25,7.13,6,20H0Z"/><path class="cls-1" d="M29.29,15.27l1.19-6.53H28.65l.56-3.31h5.62l-1.69,9.68c-.14.76.16,1.13,1,1.13h.64L34.08,20h-.81C30.13,20,28.75,18.39,29.29,15.27ZM31.93.38h3.82l-.7,3.79H31.26Z"/><path class="cls-1" d="M38.38,19l-.17,1H35.87l.76-4.36h3.79c-.19,1.08.51,1.8,1.72,1.8a2,2,0,0,0,2.18-1.72c0-1-1.1-1.42-2.58-1.93C40,13.18,38,12.15,38,9.76c0-3,2.63-5,5.88-5,1.78,0,3,.64,3.42,1.53l.16-.89h2.1l-.65,3.79H45.1a1.28,1.28,0,0,0-1.43-1.47,1.65,1.65,0,0,0-1.83,1.42c0,.83,1.08,1.24,2.34,1.67,1.72.56,4,1.67,4,4.38,0,3.2-2.69,5.41-6,5.41A4.39,4.39,0,0,1,38.38,19Z"/><path class="cls-2" d="M49.93,16.24h2l2-11.56H52L52.62.91H61c4.12,0,6.57,2.18,6.57,5.49,0,4.47-3.69,7.56-8.85,7.56H56.63L55.55,20H49.26Zm9.49-6A3.22,3.22,0,0,0,62.92,7a2.24,2.24,0,0,0-2.53-2.29H58.27l-1,5.51Z"/><path class="cls-2" d="M67.5,14c0-5.32,4-9.22,9.52-9.22,3.52,0,6.4,1.58,6.4,4.49,0,2.69-2.36,5-7,5a10.82,10.82,0,0,1-5-1.1,5,5,0,0,0-.08,1,3,3,0,0,0,3.28,3.07,4.67,4.67,0,0,0,3.63-1.72h4.11A9.22,9.22,0,0,1,74,20.63C69.9,20.63,67.5,18.12,67.5,14ZM79.33,9.82c0-.89-.91-1.62-2.66-1.62A4.86,4.86,0,0,0,72,11.11a7.3,7.3,0,0,0,3.55.83C78,11.94,79.33,10.92,79.33,9.82Z"/><path class="cls-2" d="M84.59,15.27l2.1-11.94h-1.8L85.45,0h5.62L88.44,15.11c-.16.76.16,1.13.94,1.13h.67L89.38,20h-.83C85.43,20,84.06,18.39,84.59,15.27Z"/><path class="cls-2" d="M93.19,14.47l1-5.73H92.38L93,5.43h5.59l-1.48,8.42c-.35,2,.24,3.31,2,3.31a3.84,3.84,0,0,0,3.69-3.26l1.48-8.47h5.64l-.62,3.31h-1.8l-1.1,6.37c-.16.76.16,1.13,1,1.13H108l-.7,3.77h-.75c-2,0-3.28-.68-3.79-2l-.08-.16a6.86,6.86,0,0,1-5.46,2.77C93.92,20.63,92.52,18.21,93.19,14.47Z"/><path class="cls-2" d="M120.61,20.92l.43-2.5a6.39,6.39,0,0,1-5,2.21c-3.58,0-6.29-2.32-6.29-6.83,0-5.11,3.49-9,8.39-9,2.53,0,4.19,1.07,4.81,2.53l.32-1.89h5.62l-.59,3.31h-1.83l-2.1,12c-.13.75.17,1.13,1,1.13H126l-.65,3.77h-.83C121.34,25.66,120,24,120.61,20.92ZM122,12a3.36,3.36,0,0,0-3.68-3.6,4.58,4.58,0,0,0-4.68,4.89c0,2.39,1.37,3.71,3.52,3.71A4.84,4.84,0,0,0,122,12Z"/><path class="cls-2" d="M130.11,14.47l1-5.73h-1.82l.59-3.31h5.59L134,13.85c-.35,2,.24,3.31,2,3.31a3.83,3.83,0,0,0,3.69-3.26l1.48-8.47h5.64l-.62,3.31h-1.8l-1.1,6.37c-.16.76.16,1.13,1,1.13h.64L144.21,20h-.76c-2,0-3.28-.68-3.79-2l-.08-.16a6.86,6.86,0,0,1-5.46,2.77C130.84,20.63,129.44,18.21,130.11,14.47Z"/><path class="cls-2" d="M146.59,14c0-5.32,4-9.22,9.52-9.22,3.52,0,6.4,1.58,6.4,4.49,0,2.69-2.37,5-7,5a10.89,10.89,0,0,1-5-1.1,5,5,0,0,0-.08,1,3,3,0,0,0,3.28,3.07,4.69,4.69,0,0,0,3.64-1.72h4.11A9.22,9.22,0,0,1,153,20.63C149,20.63,146.59,18.12,146.59,14Zm11.83-4.19c0-.89-.91-1.62-2.66-1.62a4.87,4.87,0,0,0-4.71,2.91,7.3,7.3,0,0,0,3.55.83C157.08,11.94,158.42,10.92,158.42,9.82Z"/><path class="cls-2" d="M162.71,16.24h1.8l1.35-7.5H164l.59-3.31H170l-.38,2.1a4.79,4.79,0,0,1,3.85-2.2,4.32,4.32,0,0,1,1,.1l-.64,3.77A8,8,0,0,0,172.18,9c-1.64,0-2.8,1.37-3.15,3.22L167.66,20H162Z"/><path class="cls-2" d="M176,15.27l1.18-6.53h-1.83l.57-3.31h5.62l-1.7,9.68c-.13.76.16,1.13,1,1.13h.65L180.75,20h-.81C176.79,20,175.42,18.39,176,15.27ZM178.59.38h3.82l-.7,3.79h-3.79Z"/><path class="cls-2" d="M183.08,13.8c0-5.11,3.49-9,8.39-9,2.53,0,4.19,1.07,4.81,2.53l.33-1.89h5.62l-.6,3.31H199.8l-1.1,6.37c-.13.76.16,1.13,1,1.13h.65L199.67,20h-.81c-2.5,0-3.55-1.05-3.81-2.13l-.09-.16a6.52,6.52,0,0,1-5.59,2.91C185.8,20.63,183.08,18.31,183.08,13.8ZM195.4,12a3.37,3.37,0,0,0-3.69-3.6A4.61,4.61,0,0,0,187,13.31c0,2.39,1.37,3.71,3.53,3.71A4.84,4.84,0,0,0,195.4,12Z"/><path class="cls-2" d="M204,19l-.16,1h-2.34l.76-4.36h3.79c-.19,1.08.51,1.8,1.72,1.8A2,2,0,0,0,210,15.73c0-1-1.1-1.42-2.59-1.93-1.72-.62-3.79-1.65-3.79-4,0-3,2.64-5,5.89-5,1.78,0,3,.64,3.42,1.53l.16-.89h2.1l-.65,3.79h-3.76a1.28,1.28,0,0,0-1.43-1.47,1.65,1.65,0,0,0-1.83,1.42c0,.83,1.08,1.24,2.34,1.67,1.72.56,4,1.67,4,4.38,0,3.2-2.69,5.41-6,5.41A4.4,4.4,0,0,1,204,19Z"/><path class="cls-1" d="M215.35,15.87h3.9L218.5,20h-3.87Z"/><path class="cls-1" d="M221,13.69c0-4.9,3.58-8.9,8.41-8.9a6,6,0,0,1,5.2,2.42l.29-1.78h3l-.94,5.33H233.1a3.32,3.32,0,0,0-3.47-2.34,4.62,4.62,0,0,0-4.71,4.87c0,2.34,1.29,3.73,3.55,3.73a4.34,4.34,0,0,0,4-2.47h4A8.71,8.71,0,0,1,228,20.63C223.58,20.63,221,17.86,221,13.69Z"/><path class="cls-1" d="M255.12,16.24h1.8l1.35-7.5h-1.83L257,5.43h5.62l-.35,1.89a6.25,6.25,0,0,1,4.95-2.53A3.45,3.45,0,0,1,270.93,8a6.13,6.13,0,0,1,5.27-3.17c3.26,0,4.39,2.36,3.71,6.18l-.72,4.14c-.14.76.16,1.13.94,1.13h.67L280.13,20h-.81c-3.22,0-4.51-1.72-4-4.74l.65-3.7c.37-2.08-.05-3.29-1.75-3.29s-3.09,1.32-3.52,3.77l-1.4,8h-3.79L267,11.57c.35-2.08-.19-3.29-1.89-3.29s-3.22,1.35-3.65,3.77l-1.4,8h-5.62Z"/><path class="cls-2" d="M49.38,34a2.1,2.1,0,0,1-1.07-.29,2,2,0,0,1-.78-.79,2.22,2.22,0,0,1,0-2.16,2.19,2.19,0,0,1,.78-.79,2.09,2.09,0,0,1,1.07-.28,2.19,2.19,0,0,1,.87.18,2.14,2.14,0,0,1,.71.52l-.4.36a1.78,1.78,0,0,0-.54-.39,1.57,1.57,0,0,0-.64-.14,1.6,1.6,0,0,0-.8.22A1.62,1.62,0,0,0,48,32.64a1.56,1.56,0,0,0,.58.59,1.57,1.57,0,0,0,1.49.06,1.34,1.34,0,0,0,.55-.45l.43.34a2.13,2.13,0,0,1-.74.6A2.11,2.11,0,0,1,49.38,34Z"/><path class="cls-2" d="M52.6,33.13l-.38.82h-.59l2-4.27L55.49,34h-.6l-.35-.82Zm1-2.14-.74,1.6H54.3Z"/><path class="cls-2" d="M56.34,34V29.72h.55v3.69H59V34Z"/><path class="cls-2" d="M60.16,34V29.72h.54V34Z"/><path class="cls-2" d="M63.23,34H62V29.72h1.28a2.17,2.17,0,0,1,.84.16,2,2,0,0,1,.67.48,2.3,2.3,0,0,1,.4,2.27,2.25,2.25,0,0,1-.4.67,1.9,1.9,0,0,1-.67.49A2.13,2.13,0,0,1,63.23,34Zm-.74-.54h.74a1.46,1.46,0,0,0,.82-.22,1.53,1.53,0,0,0,.51-.59,1.72,1.72,0,0,0,.07-1.37,1.34,1.34,0,0,0-.3-.5,1.42,1.42,0,0,0-.49-.35,1.51,1.51,0,0,0-.61-.11h-.74Z"/><path class="cls-2" d="M66.59,33.13l-.38.82h-.59l2-4.27L69.47,34h-.59l-.35-.82Zm1-2.14-.74,1.6h1.45Z"/><path class="cls-2" d="M71.61,34H70.33V29.72h1.28a2.12,2.12,0,0,1,.83.16,2,2,0,0,1,.68.48,2.38,2.38,0,0,1,.4.67,2.36,2.36,0,0,1,.13.8,2.4,2.4,0,0,1-.13.8,2.25,2.25,0,0,1-.4.67,1.9,1.9,0,0,1-.67.49A2.13,2.13,0,0,1,71.61,34Zm-.74-.54h.74a1.42,1.42,0,0,0,.81-.22,1.48,1.48,0,0,0,.52-.59A1.72,1.72,0,0,0,73,31.23a1.48,1.48,0,0,0-.3-.5,1.42,1.42,0,0,0-.49-.35,1.54,1.54,0,0,0-.61-.11h-.74Z"/><path class="cls-2" d="M76.57,34V29.72h1.55a1.6,1.6,0,0,1,.53.09,1.33,1.33,0,0,1,.45.26,1.3,1.3,0,0,1,.33.41,1.15,1.15,0,0,1,0,1,1.42,1.42,0,0,1-.33.41,1.33,1.33,0,0,1-.45.26,1.39,1.39,0,0,1-.53.1h-1V34Zm.55-2.27h1a.92.92,0,0,0,.44-.1.89.89,0,0,0,.32-.25A.6.6,0,0,0,79,31a.57.57,0,0,0-.12-.35.82.82,0,0,0-.32-.26,1,1,0,0,0-.44-.09h-1Z"/><path class="cls-2" d="M83.44,34h-.68l-1.6-2.27h.61a2.63,2.63,0,0,0,.43,0,.94.94,0,0,0,.26-.07.69.69,0,0,0,.32-.26.71.71,0,0,0,.11-.35.53.53,0,0,0-.11-.34.7.7,0,0,0-.32-.26,1,1,0,0,0-.48-.1H81L81,34h-.56V29.72H82a1.57,1.57,0,0,1,.58.1,1.44,1.44,0,0,1,.77.68,1.1,1.1,0,0,1,.1.47,1.17,1.17,0,0,1-.23.69,2.72,2.72,0,0,1-.24.24,1.75,1.75,0,0,1-.29.18,1.29,1.29,0,0,1-.45.09Z"/><path class="cls-2" d="M86.26,34a2.13,2.13,0,0,1-1.08-.29,2.09,2.09,0,0,1-.77-.79,2.14,2.14,0,0,1,1.85-3.23,2.15,2.15,0,0,1,1.85,1.07,2.16,2.16,0,0,1,0,2.16,2,2,0,0,1-.78.79A2.1,2.1,0,0,1,86.26,34Zm0-3.77a1.48,1.48,0,0,0-.8.22,1.59,1.59,0,0,0-.59.59,1.65,1.65,0,0,0,0,1.61,1.59,1.59,0,0,0,.59.59,1.61,1.61,0,1,0,.8-3Z"/><path class="cls-2" d="M89.29,34V29.72H92v.55H89.84v1.29h1.64v.55H89.84V34Z"/><path class="cls-2" d="M93,34V29.72h2.7v.55H93.54v1.29H95.2v.55H93.54v1.3h2.17V34Z"/><path class="cls-2" d="M99.44,32.21a1,1,0,0,1,.18.58,1,1,0,0,1-.12.48,1.37,1.37,0,0,1-.36.4,1.74,1.74,0,0,1-.49.25,2.25,2.25,0,0,1-.58.08A1.78,1.78,0,0,1,97,33.67a1.18,1.18,0,0,1-.44-.6l.51-.28a.45.45,0,0,0,.14.33.93.93,0,0,0,.37.25,1.43,1.43,0,0,0,1,0,.93.93,0,0,0,.37-.25.49.49,0,0,0,.14-.33.46.46,0,0,0-.1-.29.83.83,0,0,0-.28-.24,2.08,2.08,0,0,0-.67-.15,2.53,2.53,0,0,1-.8-.19,1.34,1.34,0,0,1-.53-.43,1.12,1.12,0,0,1-.19-.6.91.91,0,0,1,.13-.48A1.12,1.12,0,0,1,97,30a2,2,0,0,1,1.65-.25,1.67,1.67,0,0,1,.5.25,1.33,1.33,0,0,1,.45.6l-.51.28a.49.49,0,0,0-.14-.33.9.9,0,0,0-.37-.25,1.39,1.39,0,0,0-.5-.09,1.35,1.35,0,0,0-.5.09.94.94,0,0,0-.38.25.48.48,0,0,0-.13.33.51.51,0,0,0,.12.31.66.66,0,0,0,.29.23,1.13,1.13,0,0,0,.36.1l.27,0a4.79,4.79,0,0,1,.48.08,1.57,1.57,0,0,1,.38.14A1.08,1.08,0,0,1,99.44,32.21Z"/><path class="cls-2" d="M100.7,34V29.72h.54V34Z"/><path class="cls-2" d="M104.38,34a2.07,2.07,0,0,1-1.07-.29,2,2,0,0,1-.78-.79,2.16,2.16,0,0,1,0-2.16,2.14,2.14,0,0,1,3.7,0,2.16,2.16,0,0,1,0,2.16,2,2,0,0,1-.78.79A2.1,2.1,0,0,1,104.38,34Zm0-3.77a1.59,1.59,0,1,0,.8.22A1.48,1.48,0,0,0,104.38,30.22Z"/><path class="cls-2" d="M108,31.07V34h-.54v-4.3l2.75,3v-2.9h.54v4.34Z"/><path class="cls-2" d="M112.54,33.13l-.38.82h-.6l2-4.27L115.42,34h-.59l-.36-.82Zm1-2.14-.74,1.6h1.46Z"/><path class="cls-2" d="M116.27,34V29.72h.56v3.69H119V34Z"/><path class="cls-2" d="M122.77,33.13l-.38.82h-.59l2-4.27L125.65,34h-.59l-.35-.82Zm1-2.14-.74,1.6h1.45Z"/><path class="cls-2" d="M126.51,34V29.72h.55v3.69h2.15V34Z"/><path class="cls-2" d="M136.1,34v-2.7l-1.63,2.12-1.64-2.13V34h-.55v-4.3l2.19,2.83,2.17-2.83V34Z"/><path class="cls-2" d="M137.82,34V29.72h2.7v.55h-2.16v1.29H140v.55h-1.65v1.3h2.16V34Z"/><path class="cls-2" d="M142.65,34a1.43,1.43,0,0,1-.81-.24,1.8,1.8,0,0,1-.6-.68l.49-.25a1.18,1.18,0,0,0,.39.46,1,1,0,0,0,1.29-.19,1.72,1.72,0,0,0,.34-1.15V29.72h.54v2.22a2.86,2.86,0,0,1-.12.85,1.77,1.77,0,0,1-.35.65,1.4,1.4,0,0,1-.52.41A1.58,1.58,0,0,1,142.65,34Z"/><path class="cls-2" d="M147.29,34a2.13,2.13,0,0,1-1.08-.29,2,2,0,0,1-.78-.79,2.22,2.22,0,0,1,0-2.16,2.09,2.09,0,0,1,.78-.78,2.12,2.12,0,0,1,2.92.78,2.16,2.16,0,0,1,0,2.16,2.09,2.09,0,0,1-.77.79A2.12,2.12,0,0,1,147.29,34Zm0-3.77a1.54,1.54,0,0,0-.81.22,1.62,1.62,0,0,0,0,2.79,1.58,1.58,0,0,0,1.61,0,1.62,1.62,0,0,0,0-2.79A1.53,1.53,0,0,0,147.29,30.22Z"/><path class="cls-2" d="M153.3,34h-.69L151,31.68h.61a2.63,2.63,0,0,0,.43,0,.94.94,0,0,0,.26-.07.69.69,0,0,0,.32-.26.64.64,0,0,0,.12-.35.54.54,0,0,0-.12-.34.72.72,0,0,0-.31-.26,1.07,1.07,0,0,0-.49-.1h-1l0,3.68h-.56V29.72h1.52a1.57,1.57,0,0,1,.58.1,1.44,1.44,0,0,1,.77.68,1.15,1.15,0,0,1-.13,1.16,1.81,1.81,0,0,1-.24.24,1.75,1.75,0,0,1-.29.18,1.29,1.29,0,0,1-.45.09Z"/><path class="cls-2" d="M156.28,34V29.72h1.54a1.61,1.61,0,0,1,.54.09,1.43,1.43,0,0,1,.45.26,1.14,1.14,0,0,1,.32.41,1.06,1.06,0,0,1,0,1,1.24,1.24,0,0,1-.32.41,1.43,1.43,0,0,1-.45.26,1.4,1.4,0,0,1-.54.1h-1V34Zm.55-2.27h1a1,1,0,0,0,.45-.1.89.89,0,0,0,.32-.25.6.6,0,0,0,.12-.36.57.57,0,0,0-.12-.35.82.82,0,0,0-.32-.26,1.13,1.13,0,0,0-.45-.09h-1Z"/><path class="cls-2" d="M163.15,34h-.68l-1.6-2.27h.61a2.63,2.63,0,0,0,.43,0,1.05,1.05,0,0,0,.26-.07.74.74,0,0,0,.32-.26.71.71,0,0,0,.11-.35.53.53,0,0,0-.11-.34.7.7,0,0,0-.32-.26,1.06,1.06,0,0,0-.48-.1h-1V34h-.55V29.72h1.52a1.48,1.48,0,0,1,.57.1,1.31,1.31,0,0,1,.47.28,1.17,1.17,0,0,1,.3.4,1,1,0,0,1,.11.47,1.17,1.17,0,0,1-.23.69,2.72,2.72,0,0,1-.24.24,1.75,1.75,0,0,1-.29.18,1.29,1.29,0,0,1-.45.09Z"/><path class="cls-2" d="M164.11,34V29.72h2.7v.55h-2.16v1.29h1.65v.55h-1.65v1.3h2.16V34Z"/><path class="cls-2" d="M169.74,34a2.07,2.07,0,0,1-1.07-.29,2,2,0,0,1-.78-.79,2.22,2.22,0,0,1,0-2.16,2.19,2.19,0,0,1,.78-.79,2.06,2.06,0,0,1,1.07-.28,2.19,2.19,0,0,1,.87.18,2.14,2.14,0,0,1,.71.52l-.4.36a1.78,1.78,0,0,0-.54-.39,1.57,1.57,0,0,0-.64-.14,1.6,1.6,0,0,0-.8.22,1.62,1.62,0,0,0-.58,2.21,1.56,1.56,0,0,0,.58.59,1.57,1.57,0,0,0,1.49.06,1.41,1.41,0,0,0,.55-.45l.43.34a2.09,2.09,0,0,1-1.67.81Z"/><path class="cls-2" d="M172.38,34V29.72h.54V34Z"/><path class="cls-2" d="M176.06,34A2.13,2.13,0,0,1,175,33.7a2,2,0,0,1-.77-.79,2.16,2.16,0,0,1,0-2.16A2.06,2.06,0,0,1,175,30a2.14,2.14,0,0,1,2.15,0,2.16,2.16,0,0,1,.78.78A2.15,2.15,0,0,1,176.06,34Zm0-3.77a1.54,1.54,0,0,0-.81.22,1.64,1.64,0,0,0-.58.59,1.65,1.65,0,0,0,0,1.61,1.64,1.64,0,0,0,.58.59,1.54,1.54,0,0,0,.81.22,1.48,1.48,0,0,0,.8-.22,1.56,1.56,0,0,0,.58-.59,1.58,1.58,0,0,0,0-1.61,1.56,1.56,0,0,0-.58-.59A1.48,1.48,0,0,0,176.06,30.22Z"/></g></g></svg>