<svg xmlns="http://www.w3.org/2000/svg" viewBox="0 0 273.07 46.3"><defs><style>.cls-1{fill:#b71622;}.cls-2{fill:#1d1d1b;}.cls-3{fill:#6f6f6e;}</style></defs><g id="Capa_2" data-name="Capa 2"><g id="Capa_1-2" data-name="Capa 1"><path class="cls-1" d="M262.85,37.64l-.07-.11c-3.72-5.52-8.57-6.12-11.25-5.58a8.12,8.12,0,0,0-5.28-2,8.23,8.23,0,0,0-7.65,5,12.64,12.64,0,0,0-5.66,3.37l-10.09-5.51.36-.38a1.38,1.38,0,0,0,0-1.88l-.62-.67L233,20.68a8.33,8.33,0,1,0-1.7-3.45L220.63,27.7l-.52-.57a1.4,1.4,0,0,0-1.09-.44l-2.84.32-5.09.33-32.4,2.24a1.37,1.37,0,0,0,0,2.74l33.73,3.17,5.7.53.82.11a1.37,1.37,0,0,0,1.11-.42l.84-.88,11.73,6.4a1.39,1.39,0,0,0,1.77-.39A10.35,10.35,0,0,1,238,38.08a8.21,8.21,0,1,0,15.58-3.52c1.78.08,4.49.88,6.92,4.44.24.46.21.71.19.75a1.37,1.37,0,1,0-1,2.55,2.77,2.77,0,0,0,3.06-.73A3.36,3.36,0,0,0,262.85,37.64Zm-28.7-22a3,3,0,0,0,3.25-5,5.28,5.28,0,0,1,1.95-.36,5.15,5.15,0,1,1-5.2,5.35ZM220.49,31.31a2.11,2.11,0,1,1-2.08-2.12A2.1,2.1,0,0,1,220.49,31.31Zm31,6.87a5.37,5.37,0,0,1-10.7.55,3.12,3.12,0,1,0,3-5.44,5.25,5.25,0,0,1,2.37-.54,5.36,5.36,0,0,1,5.3,5.23h0C251.44,38.05,251.46,38.11,251.46,38.18Z"/><path class="cls-1" d="M.65,15.8H2.59l2-11.25H2.64L3.27.89h7.48L12.92,13,19.48.89h8L26.8,4.55H24.87L23.09,14.7c-.13.73.16,1.1.94,1.1h.79l-.66,3.66H22.73c-2.91,0-4.4-1.76-3.88-4.61l1.42-7.92-6.8,12.53H10.28L8,6.93,5.81,19.46H0Z"/><path class="cls-1" d="M28.49,14.85,29.64,8.5H27.86l.55-3.22h5.46L32.23,14.7c-.14.73.15,1.1.94,1.1h.63l-.66,3.66h-.78C29.3,19.46,28,17.89,28.49,14.85ZM31.05.37h3.71l-.68,3.69H30.4Z"/><path class="cls-1" d="M37.32,18.49l-.16,1H34.89l.73-4.24h3.69C39.12,16.27,39.8,17,41,17A1.92,1.92,0,0,0,43.1,15.3c0-.94-1.07-1.39-2.51-1.88-1.68-.6-3.69-1.6-3.69-3.93,0-2.95,2.56-4.83,5.73-4.83,1.72,0,2.87.62,3.32,1.49l.15-.87h2L47.52,9H43.86a1.25,1.25,0,0,0-1.39-1.44,1.61,1.61,0,0,0-1.78,1.39c0,.81,1.05,1.2,2.28,1.62,1.67.55,3.87,1.62,3.87,4.26,0,3.11-2.62,5.26-5.86,5.26A4.29,4.29,0,0,1,37.32,18.49Z"/><path class="cls-2" d="M48.56,15.8h1.93l2-11.25H50.54L51.17.89h8.18c4,0,6.39,2.12,6.39,5.34,0,4.34-3.59,7.34-8.61,7.34H55.07l-1,5.89H47.9Zm9.22-5.89a3.13,3.13,0,0,0,3.41-3.14,2.17,2.17,0,0,0-2.46-2.22H56.66l-.94,5.36Z"/><path class="cls-2" d="M65.64,13.63c0-5.18,3.88-9,9.26-9,3.43,0,6.23,1.54,6.23,4.36,0,2.62-2.31,4.84-6.83,4.84a10.58,10.58,0,0,1-4.84-1.07,4.71,4.71,0,0,0-.08,1,2.87,2.87,0,0,0,3.19,3,4.55,4.55,0,0,0,3.54-1.67h4a9,9,0,0,1-8.18,5C68,20.06,65.64,17.63,65.64,13.63ZM77.15,9.55c0-.87-.89-1.57-2.59-1.57A4.74,4.74,0,0,0,70,10.8a7.08,7.08,0,0,0,3.46.81C75.84,11.61,77.15,10.62,77.15,9.55Z"/><path class="cls-2" d="M82.26,14.85l2-11.61H82.55L83.1,0h5.47L86,14.7c-.15.73.16,1.1.92,1.1h.65l-.65,3.66h-.81C83.08,19.46,81.74,17.89,82.26,14.85Z"/><path class="cls-2" d="M90.63,14.07l1-5.57H89.84l.58-3.22h5.44l-1.44,8.19c-.34,2,.23,3.22,1.93,3.22a3.73,3.73,0,0,0,3.59-3.17l1.44-8.24h5.48l-.6,3.22h-1.75l-1.07,6.2c-.16.73.16,1.1.94,1.1H105l-.68,3.66h-.73c-1.94,0-3.19-.66-3.69-1.94l-.08-.15a6.67,6.67,0,0,1-5.31,2.69C91.33,20.06,90,17.7,90.63,14.07Z"/><path class="cls-2" d="M117.29,20.35l.42-2.44a6.24,6.24,0,0,1-4.89,2.15c-3.48,0-6.12-2.25-6.12-6.64,0-5,3.4-8.76,8.16-8.76,2.45,0,4.07,1,4.68,2.45l.31-1.83h5.47l-.58,3.22H123l-2,11.69c-.13.73.16,1.1.94,1.1h.63L121.86,25h-.81C118,25,116.74,23.38,117.29,20.35Zm1.38-8.66a3.27,3.27,0,0,0-3.58-3.5A4.45,4.45,0,0,0,110.54,13c0,2.32,1.33,3.61,3.43,3.61A4.71,4.71,0,0,0,118.67,11.69Z"/><path class="cls-2" d="M126.53,14.07l1-5.57h-1.77l.57-3.22h5.44l-1.44,8.19c-.34,2,.24,3.22,1.94,3.22a3.72,3.72,0,0,0,3.58-3.17l1.44-8.24h5.49l-.6,3.22h-1.75l-1.07,6.2c-.16.73.15,1.1.94,1.1h.62l-.67,3.66h-.74c-1.93,0-3.19-.66-3.68-1.94l-.08-.15a6.67,6.67,0,0,1-5.31,2.69C127.24,20.06,125.88,17.7,126.53,14.07Z"/><path class="cls-2" d="M142.55,13.63c0-5.18,3.87-9,9.26-9C155.23,4.66,158,6.2,158,9c0,2.62-2.3,4.84-6.82,4.84a10.58,10.58,0,0,1-4.84-1.07,4.71,4.71,0,0,0-.08,1,2.87,2.87,0,0,0,3.19,3A4.52,4.52,0,0,0,153,15.09h4a9,9,0,0,1-8.18,5C144.88,20.06,142.55,17.63,142.55,13.63Zm11.51-4.08c0-.87-.89-1.57-2.59-1.57a4.73,4.73,0,0,0-4.58,2.82,7.08,7.08,0,0,0,3.46.81C152.75,11.61,154.06,10.62,154.06,9.55Z"/><path class="cls-2" d="M158.23,15.8H160l1.31-7.3h-1.78l.58-3.22h5.23l-.37,2a4.64,4.64,0,0,1,3.74-2.14,4.1,4.1,0,0,1,1,.1L169,8.94a8.1,8.1,0,0,0-1.59-.23c-1.6,0-2.72,1.33-3.06,3.14L163,19.46h-5.46Z"/><path class="cls-2" d="M171.11,14.85l1.15-6.35h-1.77L171,5.28h5.46l-1.65,9.42c-.13.73.16,1.1.94,1.1h.63l-.65,3.66H175C171.92,19.46,170.59,17.89,171.11,14.85ZM173.68.37h3.71l-.68,3.69H173Z"/><path class="cls-2" d="M178,13.42c0-5,3.4-8.76,8.16-8.76,2.46,0,4.08,1,4.68,2.45l.31-1.83h5.47l-.58,3.22H194.3l-1.07,6.2c-.13.73.16,1.1.94,1.1h.63l-.63,3.66h-.78c-2.43,0-3.45-1-3.71-2.07l-.08-.16a6.36,6.36,0,0,1-5.44,2.83C180.68,20.06,178,17.81,178,13.42Zm12-1.73a3.28,3.28,0,0,0-3.59-3.5A4.48,4.48,0,0,0,181.88,13c0,2.32,1.33,3.61,3.43,3.61A4.72,4.72,0,0,0,190,11.69Z"/><path class="cls-2" d="M198.4,18.49l-.16,1H196l.74-4.24h3.68c-.18,1,.5,1.75,1.68,1.75a1.92,1.92,0,0,0,2.12-1.67c0-.94-1.08-1.39-2.51-1.88-1.68-.6-3.69-1.6-3.69-3.93,0-2.95,2.56-4.83,5.73-4.83,1.72,0,2.87.62,3.32,1.49l.15-.87h2L208.6,9h-3.67a1.24,1.24,0,0,0-1.38-1.44,1.61,1.61,0,0,0-1.78,1.39c0,.81,1,1.2,2.27,1.62,1.68.55,3.88,1.62,3.88,4.26,0,3.11-2.62,5.26-5.86,5.26A4.29,4.29,0,0,1,198.4,18.49Z"/><path class="cls-1" d="M209.42,15.43h3.8l-.74,4h-3.76Z"/><path class="cls-1" d="M214.88,13.31c0-4.76,3.48-8.65,8.19-8.65A5.81,5.81,0,0,1,228.12,7l.29-1.73h2.92l-.91,5.18h-3.74a3.22,3.22,0,0,0-3.37-2.27,4.49,4.49,0,0,0-4.58,4.73c0,2.28,1.25,3.64,3.45,3.64a4.22,4.22,0,0,0,3.9-2.41H230a8.46,8.46,0,0,1-8.24,5.91C217.42,20.06,214.88,17.37,214.88,13.31Z"/><path class="cls-1" d="M248.1,15.8h1.75l1.31-7.3h-1.78L250,5.28h5.47l-.34,1.83a6.12,6.12,0,0,1,4.81-2.45,3.34,3.34,0,0,1,3.58,3.08,6,6,0,0,1,5.13-3.08c3.16,0,4.26,2.3,3.61,6l-.71,4c-.13.73.16,1.1.92,1.1h.65l-.65,3.66h-.79c-3.13,0-4.39-1.68-3.87-4.61l.63-3.6c.37-2-.05-3.2-1.7-3.2s-3,1.29-3.43,3.67l-1.35,7.74h-3.69l1.44-8.21c.34-2-.19-3.2-1.84-3.2s-3.13,1.31-3.55,3.67l-1.36,7.74h-5.47Z"/><path class="cls-3" d="M48,33.05a2,2,0,0,1-1-.28,2.05,2.05,0,0,1-.76-.76A2.1,2.1,0,0,1,47,29.14a2,2,0,0,1,1-.28,2.09,2.09,0,0,1,.85.18,2,2,0,0,1,.69.51l-.39.34a1.59,1.59,0,0,0-.52-.37,1.52,1.52,0,0,0-1.41.07,1.64,1.64,0,0,0-.56.58,1.57,1.57,0,0,0,0,1.57,1.64,1.64,0,0,0,.56.58,1.52,1.52,0,0,0,.78.21,1.44,1.44,0,0,0,.67-.16,1.41,1.41,0,0,0,.54-.43l.41.33a1.93,1.93,0,0,1-.72.58A2.12,2.12,0,0,1,48,33.05Z"/><path class="cls-3" d="M51.15,32.22l-.36.8h-.58l1.92-4.16L54,33h-.58l-.34-.8Zm1-2.09-.72,1.57h1.42Z"/><path class="cls-3" d="M54.79,33V28.9h.53v3.59h2.1V33Z"/><path class="cls-3" d="M58.5,33V28.9H59V33Z"/><path class="cls-3" d="M61.49,33H60.25V28.9h1.24a2.17,2.17,0,0,1,.81.16,1.82,1.82,0,0,1,.66.47,2.34,2.34,0,0,1,.39.65,2.44,2.44,0,0,1,.13.77,2.55,2.55,0,0,1-.13.78,2.2,2.2,0,0,1-.39.65,1.9,1.9,0,0,1-.65.48A2.26,2.26,0,0,1,61.49,33Zm-.72-.53h.72a1.36,1.36,0,0,0,.79-.22,1.41,1.41,0,0,0,.51-.57A1.79,1.79,0,0,0,63,31a1.62,1.62,0,0,0-.11-.58,1.36,1.36,0,0,0-.29-.49,1.18,1.18,0,0,0-.47-.33,1.5,1.5,0,0,0-.6-.12h-.72Z"/><path class="cls-3" d="M64.76,32.22l-.37.8h-.58l1.93-4.16L67.56,33H67l-.35-.8Zm1-2.09L65,31.7h1.41Z"/><path class="cls-3" d="M69.64,33H68.39V28.9h1.25a2.25,2.25,0,0,1,.81.16,1.78,1.78,0,0,1,.65.47,1.94,1.94,0,0,1,.39.65,2.19,2.19,0,0,1,.14.77,2.29,2.29,0,0,1-.14.78,1.85,1.85,0,0,1-.39.65,1.81,1.81,0,0,1-.65.48A2.17,2.17,0,0,1,69.64,33Zm-.72-.53h.72a1.38,1.38,0,0,0,.79-.22,1.32,1.32,0,0,0,.5-.57A1.65,1.65,0,0,0,71.1,31a1.61,1.61,0,0,0-.1-.58,1.54,1.54,0,0,0-.3-.49,1.12,1.12,0,0,0-.47-.33,1.45,1.45,0,0,0-.59-.12h-.72Z"/><path class="cls-3" d="M74.46,33V28.9H76a1.54,1.54,0,0,1,.52.09,1.48,1.48,0,0,1,.44.25,1.31,1.31,0,0,1,.31.4,1.08,1.08,0,0,1,0,.95,1.2,1.2,0,0,1-.31.4,1.5,1.5,0,0,1-.44.26,1.54,1.54,0,0,1-.52.09H75V33ZM75,30.81h1a1,1,0,0,0,.43-.09.88.88,0,0,0,.31-.26.55.55,0,0,0,.12-.35.56.56,0,0,0-.12-.34.86.86,0,0,0-.31-.25,1,1,0,0,0-.43-.09H75Z"/><path class="cls-3" d="M81.15,33h-.67l-1.56-2.21h.6a2.37,2.37,0,0,0,.41,0l.26-.06a.68.68,0,0,0,.31-.27.65.65,0,0,0,.11-.34.54.54,0,0,0-.11-.33.79.79,0,0,0-.31-.25,1,1,0,0,0-.46-.1h-1l0,3.59h-.54V28.9h1.48a1.45,1.45,0,0,1,.55.1,1.33,1.33,0,0,1,.46.27,1.24,1.24,0,0,1,.29.39,1.1,1.1,0,0,1-.12,1.12,1.31,1.31,0,0,1-.23.24,2.2,2.2,0,0,1-.28.18,1.25,1.25,0,0,1-.44.08Z"/><path class="cls-3" d="M83.89,33.05a2,2,0,0,1-1-.28,2.05,2.05,0,0,1-.76-.76A2.14,2.14,0,0,1,81.81,31a2.1,2.1,0,0,1,.27-1,2.05,2.05,0,0,1,.76-.76,2,2,0,0,1,1-.29,2,2,0,0,1,1,.29,2,2,0,0,1,.76.76A2,2,0,0,1,86,31,2.05,2.05,0,0,1,85.68,32a2,2,0,0,1-.76.76A1.94,1.94,0,0,1,83.89,33.05Zm0-3.66a1.53,1.53,0,0,0-.79.21,1.61,1.61,0,0,0-.56.57,1.57,1.57,0,0,0,0,1.57,1.56,1.56,0,0,0,.56.58,1.53,1.53,0,0,0,.79.21,1.46,1.46,0,0,0,.77-.21,1.51,1.51,0,0,0,.57-.58,1.57,1.57,0,0,0,0-1.57,1.56,1.56,0,0,0-.57-.57A1.46,1.46,0,0,0,83.89,29.39Z"/><path class="cls-3" d="M86.83,33V28.9h2.63v.53H87.37v1.26H89v.53H87.37V33Z"/><path class="cls-3" d="M90.44,33V28.9h2.63v.53H91v1.26h1.61v.53H91v1.27h2.1V33Z"/><path class="cls-3" d="M96.7,31.32a1,1,0,0,1,.06,1,1.25,1.25,0,0,1-.35.38,1.35,1.35,0,0,1-.48.24,1.77,1.77,0,0,1-.56.09,1.69,1.69,0,0,1-1.05-.33,1.17,1.17,0,0,1-.43-.58l.5-.28a.48.48,0,0,0,.13.33,1,1,0,0,0,.36.24,1.38,1.38,0,0,0,1,0,1,1,0,0,0,.36-.24.48.48,0,0,0,.13-.33.51.51,0,0,0-.09-.28,1,1,0,0,0-.27-.23,2.49,2.49,0,0,0-.66-.15,2.24,2.24,0,0,1-.78-.18,1.18,1.18,0,0,1-.51-.42,1,1,0,0,1-.18-.58,1,1,0,0,1,.12-.47,1.14,1.14,0,0,1,.34-.39,1.79,1.79,0,0,1,1.05-.32,2.1,2.1,0,0,1,.56.08,1.66,1.66,0,0,1,.48.24,1.17,1.17,0,0,1,.43.58l-.49.28a.44.44,0,0,0-.14-.32.81.81,0,0,0-.35-.24,1.37,1.37,0,0,0-.49-.09,1.33,1.33,0,0,0-.49.09.93.93,0,0,0-.36.23.48.48,0,0,0-.13.33.47.47,0,0,0,.11.3.67.67,0,0,0,.28.22,1,1,0,0,0,.35.1l.27,0,.47.08a1.63,1.63,0,0,1,.37.13A1.07,1.07,0,0,1,96.7,31.32Z"/><path class="cls-3" d="M97.93,33V28.9h.53V33Z"/><path class="cls-3" d="M101.51,33.05a2,2,0,0,1-1.05-.28,2,2,0,0,1-.75-.76A2.05,2.05,0,0,1,99.43,31a2,2,0,0,1,.28-1,2,2,0,0,1,.75-.76,2,2,0,0,1,2.09,0,2,2,0,0,1,.75.76,2,2,0,0,1,.29,1A2.06,2.06,0,0,1,103.3,32a2,2,0,0,1-.75.76A2,2,0,0,1,101.51,33.05Zm0-3.66a1.52,1.52,0,0,0-.78.21,1.56,1.56,0,0,0-.57.57,1.56,1.56,0,0,0,2.13,2.15,1.56,1.56,0,0,0,.56-.58,1.57,1.57,0,0,0,0-1.57,1.61,1.61,0,0,0-.56-.57A1.52,1.52,0,0,0,101.51,29.39Z"/><path class="cls-3" d="M105,30.22V33h-.53V28.84l2.67,2.89V28.9h.53v4.22Z"/><path class="cls-3" d="M109.44,32.22l-.37.8h-.58l1.93-4.16L112.24,33h-.57l-.35-.8Zm1-2.09-.72,1.57h1.41Z"/><path class="cls-3" d="M113.07,33V28.9h.54v3.59h2.09V33Z"/><path class="cls-3" d="M119.39,32.22,119,33h-.58l1.93-4.16L122.2,33h-.58l-.35-.8Zm1-2.09-.72,1.57h1.42Z"/><path class="cls-3" d="M123,33V28.9h.54v3.59h2.09V33Z"/><path class="cls-3" d="M132.36,33V30.39l-1.59,2.06-1.59-2.07V33h-.54V28.84l2.13,2.74,2.11-2.74V33Z"/><path class="cls-3" d="M134,33V28.9h2.62v.53h-2.1v1.26h1.61v.53h-1.61v1.27h2.1V33Z"/><path class="cls-3" d="M138.72,33.05a1.46,1.46,0,0,1-.79-.23,1.78,1.78,0,0,1-.58-.66l.48-.24a1.12,1.12,0,0,0,.38.45.86.86,0,0,0,.51.16,1,1,0,0,0,.75-.35,1.7,1.7,0,0,0,.32-1.12V28.9h.53v2.16a2.66,2.66,0,0,1-.12.82,1.78,1.78,0,0,1-.34.64,1.28,1.28,0,0,1-.5.39A1.39,1.39,0,0,1,138.72,33.05Z"/><path class="cls-3" d="M143.23,33.05a2.05,2.05,0,0,1-1.8-1,2.05,2.05,0,0,1-.28-1.06,2,2,0,0,1,.28-1,2.09,2.09,0,0,1,1.8-1.05,2,2,0,0,1,1,.29,2.05,2.05,0,0,1,.76.76,2,2,0,0,1,.28,1,2.08,2.08,0,0,1-1,1.82A2,2,0,0,1,143.23,33.05Zm0-3.66a1.52,1.52,0,0,0-.78.21,1.56,1.56,0,0,0-.57.57,1.57,1.57,0,0,0,0,1.57,1.55,1.55,0,0,0,2.7,0,1.57,1.57,0,0,0,0-1.57,1.56,1.56,0,0,0-.57-.57A1.52,1.52,0,0,0,143.23,29.39Z"/><path class="cls-3" d="M149.07,33h-.66l-1.56-2.21h.59a2.42,2.42,0,0,0,.42,0l.25-.06a.71.71,0,0,0,.32-.27.65.65,0,0,0,.11-.34.62.62,0,0,0-.11-.33.79.79,0,0,0-.31-.25,1,1,0,0,0-.47-.1h-1V33h-.53V28.9h1.47a1.47,1.47,0,0,1,.56.1,1.29,1.29,0,0,1,.45.27,1.14,1.14,0,0,1,.3.39,1.1,1.1,0,0,1-.12,1.12,1.31,1.31,0,0,1-.23.24,2.29,2.29,0,0,1-.29.18,1.16,1.16,0,0,1-.43.08Z"/><path class="cls-3" d="M152,33V28.9h1.5A1.5,1.5,0,0,1,154,29a1.36,1.36,0,0,1,.44.25,1.31,1.31,0,0,1,.31.4,1,1,0,0,1,.11.47,1,1,0,0,1-.11.48,1.2,1.2,0,0,1-.31.4,1.39,1.39,0,0,1-.44.26,1.5,1.5,0,0,1-.52.09h-1V33Zm.53-2.21h1a1,1,0,0,0,.43-.09.88.88,0,0,0,.31-.26.55.55,0,0,0,.12-.35.56.56,0,0,0-.12-.34.86.86,0,0,0-.31-.25,1,1,0,0,0-.43-.09h-1Z"/><path class="cls-3" d="M158.66,33H158l-1.56-2.21H157a2.42,2.42,0,0,0,.42,0l.25-.06a.63.63,0,0,0,.31-.27.59.59,0,0,0,.12-.34.62.62,0,0,0-.11-.33,1,1,0,0,0-.31-.25,1,1,0,0,0-.47-.1h-1V33h-.54V28.9h1.48a1.5,1.5,0,0,1,.56.1,1.29,1.29,0,0,1,.45.27,1.27,1.27,0,0,1,.3.39,1.22,1.22,0,0,1,.1.45,1.07,1.07,0,0,1-.23.67,1,1,0,0,1-.23.24,1.67,1.67,0,0,1-.28.18,1.21,1.21,0,0,1-.44.08Z"/><path class="cls-3" d="M159.59,33V28.9h2.63v.53h-2.1v1.26h1.61v.53h-1.61v1.27h2.1V33Z"/><path class="cls-3" d="M165.06,33.05a2,2,0,0,1-1-.28,2,2,0,0,1-.75-.76,2.13,2.13,0,0,1,0-2.11,2,2,0,0,1,.75-.76,2,2,0,0,1,1-.28,2.06,2.06,0,0,1,.85.18,1.94,1.94,0,0,1,.69.51l-.39.34a1.5,1.5,0,0,0-.52-.37,1.52,1.52,0,0,0-.63-.14,1.49,1.49,0,0,0-.77.21,1.59,1.59,0,0,0-.57.58,1.57,1.57,0,0,0,0,1.57,1.59,1.59,0,0,0,.57.58,1.49,1.49,0,0,0,.77.21,1.41,1.41,0,0,0,.67-.16,1.34,1.34,0,0,0,.54-.43l.42.33a2,2,0,0,1-.72.58A2.19,2.19,0,0,1,165.06,33.05Z"/><path class="cls-3" d="M167.63,33V28.9h.53V33Z"/><path class="cls-3" d="M171.21,33.05a2.05,2.05,0,0,1-1.8-1,2.05,2.05,0,0,1-.28-1.06,2,2,0,0,1,.28-1,2.09,2.09,0,0,1,1.8-1.05,2,2,0,0,1,1,.29,2.05,2.05,0,0,1,.76.76,2,2,0,0,1,.28,1,2.08,2.08,0,0,1-1,1.82A2,2,0,0,1,171.21,33.05Zm0-3.66a1.52,1.52,0,0,0-.78.21,1.56,1.56,0,0,0-.57.57,1.64,1.64,0,0,0,0,1.57,1.55,1.55,0,0,0,2.7,0,1.57,1.57,0,0,0,0-1.57,1.56,1.56,0,0,0-.57-.57A1.52,1.52,0,0,0,171.21,29.39Z"/></g></g></svg>