<?xml version="1.0" encoding="utf-8"?>
<!-- Generator: Adobe Illustrator 25.4.0, SVG Export Plug-In . SVG Version: 6.00 Build 0)  -->
<svg version="1.1" id="Capa_1" xmlns="http://www.w3.org/2000/svg" xmlns:xlink="http://www.w3.org/1999/xlink" x="0px" y="0px"
	 viewBox="0 0 20 20" style="enable-background:new 0 0 20 20;" xml:space="preserve">
<style type="text/css">
	.st0{fill:#1D1D1B;}
</style>
<g>
	<path class="st0" d="M10,0.7c0.8,0,1.5,0.3,2,0.8l0.1,0.1l0.8,0.8l0.2,0.2l0.3,0l1.1,0l0,0l0,0c0.8,0,1.5,0.3,2,0.9
		c0.5,0.6,0.8,1.3,0.8,2.1l0,1.1l0,0.3l0.2,0.2l0.8,0.8l0,0c0.5,0.6,0.8,1.3,0.8,2.1c0,0.8-0.3,1.5-0.9,2l-0.8,0.8l-0.2,0.2l0,0.3
		l0,1.1v0.1c0,1.6-1.3,2.9-2.9,2.9h0l-1.1,0l-0.3,0l-0.2,0.2l-0.8,0.8l0,0c-0.5,0.5-1.3,0.8-2,0.8c-0.8,0-1.5-0.3-2.1-0.9l-0.8-0.8
		l-0.2-0.2l-0.3,0l-1.1,0h0h0c-1.6,0-2.9-1.3-2.9-2.9l0-1.1l0-0.3l-0.2-0.2l-0.8-0.8l0,0C1,11.5,0.7,10.7,0.7,10
		c0-0.8,0.3-1.5,0.9-2l0.8-0.8l0.2-0.2l0-0.3l0-1.1V5.4c0-1.6,1.3-2.9,2.9-2.9l0,0l1.1,0l0.3,0l0.2-0.2l0.8-0.8l0,0
		C8.5,1,9.2,0.7,10,0.7 M8.7,10L7.8,9.1C7.6,8.8,7.2,8.7,6.9,8.7c-0.4,0-0.7,0.1-0.9,0.4C5.7,9.3,5.5,9.6,5.5,10
		c0,0.4,0.1,0.7,0.4,0.9l1.9,1.9l0,0l0,0c0.3,0.2,0.6,0.4,0.9,0.4c0.4,0,0.7-0.1,0.9-0.4l3.8-3.8c0.2-0.3,0.4-0.6,0.4-0.9
		c0-0.4-0.1-0.7-0.4-0.9c-0.3-0.3-0.6-0.4-0.9-0.4s-0.7,0.1-0.9,0.4L8.7,10 M10,0C9.1,0,8.2,0.3,7.5,1c0,0,0,0-0.1,0.1L6.6,1.9
		l-1.1,0c0,0,0,0,0,0c-2,0-3.6,1.6-3.6,3.6c0,0,0,0.1,0,0.1l0,1.1L1.1,7.4c-1.4,1.4-1.5,3.7-0.1,5.1c0,0,0,0,0.1,0.1l0.8,0.8l0,1.1
		c0,2,1.6,3.6,3.6,3.7h0h0l1.1,0l0.8,0.8C8.1,19.6,9.1,20,10,20c0.9,0,1.8-0.3,2.5-1c0,0,0,0,0.1-0.1l0.8-0.8l1.1,0h0
		c2,0,3.6-1.6,3.6-3.6c0,0,0-0.1,0-0.1l0-1.1l0.8-0.8c1.4-1.4,1.5-3.7,0.1-5.1c0,0,0,0-0.1-0.1l-0.8-0.8l0-1.1c0-2-1.6-3.6-3.6-3.7
		c0,0,0,0,0,0c0,0,0,0,0,0l-1.1,0l-0.8-0.8v0C11.9,0.4,10.9,0,10,0 M8.7,11l3.3-3.3c0.1-0.1,0.3-0.2,0.4-0.2c0.2,0,0.3,0.1,0.4,0.2
		c0.2,0.2,0.2,0.6,0,0.9l-3.7,3.7c-0.1,0.1-0.3,0.2-0.4,0.2c-0.2,0-0.3-0.1-0.4-0.2c0,0,0,0,0,0l-1.9-1.9c-0.2-0.2-0.2-0.6,0-0.9
		c0.1-0.1,0.3-0.2,0.4-0.2c0.2,0,0.3,0.1,0.4,0.2L8.7,11z"/>
</g>
<g>
</g>
<g>
</g>
<g>
</g>
<g>
</g>
<g>
</g>
<g>
</g>
<g>
</g>
<g>
</g>
<g>
</g>
<g>
</g>
<g>
</g>
<g>
</g>
<g>
</g>
<g>
</g>
<g>
</g>
</svg>
